<?xml version="1.0" encoding="UTF-8"?>
<svg xmlns="http://www.w3.org/2000/svg" viewBox="0 0 85 85"><path style="fill:none;stroke:#00ffb2;stroke-linecap:round;stroke-linejoin:round;stroke-width:2.5px;" d="M63.91,42.75V55.34a8.6,8.6,0,0,1-8.57,8.57H29.66a8.6,8.6,0,0,1-8.57-8.57V29.66a8.6,8.6,0,0,1,8.57-8.57H55.34a8.6,8.6,0,0,1,8.57,8.57v2.85"></path><path style="fill:none;stroke:#00ffb2;stroke-linecap:round;stroke-linejoin:round;stroke-width:2.5px;" d="M51.22,42.5A9.24,9.24,0,1,1,42,32.36a9.11,9.11,0,0,1,3.55.71"></path><path style="fill:none;stroke:#00ffb2;stroke-linecap:round;stroke-linejoin:round;stroke-width:2.5px;" d="M52.23,29.78a2,2,0,0,1,2-1.67,2,2,0,0,1,0,4"></path><path style="fill:none;stroke:#00ffb2;stroke-linecap:round;stroke-linejoin:round;stroke-width:2.5px;" d="M51.22,42.5v-.07a6.35,6.35,0,0,1,12.69.07"></path><path style="fill:none;stroke:#00ffb2;stroke-linecap:round;stroke-linejoin:round;stroke-width:2.5px;" d="M52.22,29.78a5.22,5.22,0,0,1-6.64,3.29"></path></svg>