<?xml version="1.0" encoding="UTF-8"?>
<svg xmlns="http://www.w3.org/2000/svg" viewBox="0 0 85 85"><path style="fill:none;stroke:#00ffb2;stroke-linecap:round;stroke-linejoin:round;stroke-width:2.5px;" d="M35.2,53.52H31.08V37.38H35.2V50m0-18.94a2.05,2.05,0,1,1-2-2A2.05,2.05,0,0,1,35.19,31Z"></path><path style="fill:none;stroke:#00ffb2;stroke-linecap:round;stroke-linejoin:round;stroke-width:2.5px;" d="M38.93,53.52V37.38h3.72v3A6.09,6.09,0,0,1,45.24,38a8.35,8.35,0,0,1,3.82-.86,4.87,4.87,0,0,1,2.46.55A4,4,0,0,1,53,39.11a6.11,6.11,0,0,1,.72,2,13.68,13.68,0,0,1,.2,2.31V53.52"></path><path style="fill:none;stroke:#00ffb2;stroke-linecap:round;stroke-linejoin:round;stroke-width:2.5px;" d="M31.46,63.06A23.33,23.33,0,1,1,65.83,42.5"></path><path style="fill:none;stroke:#00ffb2;stroke-linecap:round;stroke-linejoin:round;stroke-width:2.5px;" d="M55.08,62.15A23.33,23.33,0,0,1,19.17,42.5"></path><line style="fill:none;stroke:#00ffb2;stroke-linecap:round;stroke-linejoin:round;stroke-width:2.5px;" x1="35.2" y1="53.52" x2="38.93" y2="53.52"></line><path style="fill:none;stroke:#00ffb2;stroke-linecap:round;stroke-linejoin:round;stroke-width:2.5px;" d="M53.92,53.52s13.37.75,11.78-13.46"></path></svg>