<svg width="507" height="326" viewBox="0 0 507 326" xmlns="http://www.w3.org/2000/svg">
    <path d="m292.235 0 2.81.157 2.086.945.175 1.22.104 2.167.398 2.036 1.107.827 1.399-.918.582-3.656 1.026-1.074 1.457.485 1.083 1.65.887 1.94.838 1.334 1.167.265 1.248-.26 1.106.217.745 1.694-.3.632-1.506 2.264-.373 1.095.479 1.367.897 1.112.28 1.276.223 1.09 5.954-.086-.92-1.035 1.014-3.283 3.032.14 3.682 2.148 2.913 2.766-2.074.483.012 1.163 1.595 1.6-1.273.913.448.144.62-.468.083.082 3.27 2.447 2.759.723 4.41-.418 4.099-1.31 1.79-1.95 2.132-.846 12.56 1.415h6.227l1.524 2.386 4.213-.004 4.377 1.012 30.888 19.26.627 2.94.215.998 3.327 5.02 4.192 1.918 3.223 2.844-.092 7.042-1.096 2.524-4.364 5.52-.523 1.488-.582 2.923-.431 1.14-3.84 4.637-3.62 6.138-1.864 3.16-1.943 5.583-.27 5.568.863 2.735 1.222 2.384.943 2.647.058 3.527-1.071 2.2-1.721 1.776-1.316 1.769.128 1.54 2.538.752 6.879 1.146 2.315-.737 2.107.558 5.902-.733 1.885.285 21.277 6.717-.186 1.88.477.407.697-.054.431.51v.971l-.465 1.575-.28 3.867-.36 1.775.187 1.543 1.43 2.034 2.794 2.144 12.047 3.889 4.353 4.143 2.538 1.47 4.864 1.563 1.565.06.764.028 2.91-.827 4.91-2.5 1.154-1.68.303-1.259.093-1.384.534-2.083 1.712-2.889 1.828-.34 2.187.575 2.805-.132.059-3.076 1.967-3.778 2.84-3.26 3.27-1.88.617-.123.63.124.593.387h.012v.026l1.163 1.252 2.351 3.789 3.83 3.046 1.001 1.2.606 2.778-1.398 5.59.269 3.51-.594 5.293-.408 1.477-.663 1.043-2.456 2.962.21 2.446.803 2.387.278 2.26-1.36 2.073-1.91 1.224-.454 1.501.104 1.867-.243 2.328-1.083 1.934-1.223 1.166-.535 1.557.943 3.131 2.037 2.37 4.795.517 2.353 1.98.848 3.155-.081 4.221-.896 4.053-.689 1.143-.883 1.467-2.036.392-8.066-2.125-3.922.372-1.445-.235-1.268-.587-.71-.754-.593-.823-.884-.786-4.645-1.596-.502-1.775.617-3.362-.22-1.846-1.792-1.473-2.9.025-10.66 3.075-1.083.595-.49 1.21-1.384 5.335-.931 1.248-2.433 2.434-.966 1.452-.152 1.175-.022 3.587-.49 1.739.14 1.51.268 1.185.548.916.976.666-1.99 3.38 1.77 2.21 3.305 1.29 5.04.978 1.943.782.827 1.812-.85 3.556-.813 1.093-2.364 2.122-.85 1.583-.57 2.205-.07 1.488.454 1.372 1.024 1.817 4.644 4.733 1.444 2.9-1.478 3.11-3.143 1.98-4.748 1.808-3.726-.077-.094-3.67-1.14-2.764-4.444-3.95-1.653-2.236-.734-3.566-.047-3.223-.746-2.651-2.816-1.852-2.316-.602-2.188-.165-4.911.847-7.497 3.856-2.34.761-1.443-.312-2.747-1.657-1.21-.03-1.223 1.384-.222 1.86.175 1.848-.045 1.282-1.723 2.389-2.118.856-12.91-.15-2.617-.96-2.387-1.624-1.431-1.975-2.246-5.874-1.002-.825-2.49-1.385-.815-.8-.222-.914.163-2.484-.675-15.647-.36-1.027-.885.2-1.815 1.341-.768 1.04-.397 1.162-.546.979-1.224.488-.849-.37-2.875-2.741-.08-2.022-2.235-.595-5.483.675-2.153 2-1.956 3.93-.883 3.998 1.082 2.204 1.5 1.04.221 1.635-.291 2.055.012 2.33 1.514 5.778.15 2.095-.698 3.584-3.294 6.894-1.676 5.82-1.024 1.648-1.303 1.217-1.35.637-1.223.908-.629 1.611-.523 1.872-.823 1.562-.06.116-8.184 5.535-2.084 3.126-.442 2.095.244 3.653-.361 1.993-.895 1.517-1.07.626-2.469.78-2.886 2.235-.49 1.84 2.002 5.638-3.7 3.42-.245.4-.082.419.082.409.245.409 1.21 1.23.931 2.94 1.023 1.52 1.095.627 2.457.492 1.058.677 1.28 2.68-.43 2.746-2.805 5.465-3.597 4.419-3.385-.633-3.692-1.643-4.458 1.359.42-2.485.676-1.919.452-2.002-.186-2.796-.628-2.11-.943-2.113-1.954-3.483-1.107-2.58-.733-1.03-.758-.591-6.46-3.47-1.722-.61-1.931-.125.186-.434.431-.779 1.977-4.55 3.225-3.924 1.666-3.801-2.865-3.786-1.699-.593-3.458.083-1.803-.25-.86-.587-.827-1.517-.359-.132-.573-.211-.699.326-1.745 1.55-.804.452-1.978-.1-5.25-3.066-2.177-.754-1.092-.563-7.113-10.516-3.2-3.291-3.108-1.57-2.945-1.184-2.072-1.712-1.235-2.613-.44-3.967.382-4.186 1.829-8.435.383-4.693-.059-4.92-.465-3.682-1.547-2.243-3.235-.568-1.492.32-4.783 1.033-3.06 1.67-2.398 2.544-.943 2.07.43.69.745.567.047 1.652-.675 1.49-1.118 1.344-1.292.99-3.19 1.616-5.54 7.32-2.327 1.621-4.889 1.093-2.432 1.128-2.2 2.235-1.13 1.589-.477 1.369.397.63 2.629 2.293 3.33 6.431.314 5.957-2.445 5.258-4.923 4.274-1.222.41-2.327.252-1.13.87-.802 1.667-.246 1.86-.011 1.817-.594 4.612-.21.326-1.094 2.41-.081.35-1.408 1.833-.803.67-1.083.333-7.985 1.805-2.991 2.099-2.48 4.733-.139.264-.35 1.663.095.843-.268.542-1.409.769-.651-.033-2.014-.618-3.097.059-5.413-1.981-1.105.126-.849.402-.943.226-1.384-.477-.165-.41-2.118-3.09-1.687-1.573-1.77-1.018-11.476-2.876-1.885.98-1.095 1.838-1.233 1.612-2.363.3-3.352 1.455-6.658 4.877-3.607 1.27-8.463-.902-1.479.51-3.165 1.96-6.95 2.855-3.398.635-3.677.067-3.457-.71-2.62-1.568-5.051-5.661-.781-1.304-.603-1.629-.793-2.957-1.291-3.36-.407-1.723-.548-.367-7.623-8.618-2.562-1.13-.941.384-.805.83-.861.651-1.071-.149-.99-.754-.068-.502.233-.678-.047-1.255.162-.16-.035-1.691-.197-1.61-.314.161.51-.838.91-1.106.792-1.24.115-1.24-1.723-1.667-8.963-1.978-.977-2.727 1.036-5.56 1.956-5.818 3.993-7.77-2.56-4.415-3.994-4.241-2.153-3.719.604-1.881 2.969-3.485.804-2.73-.127-1.598-.118-1.494-1.047-1.619-.006-.002-1.695-.84-16.778-4.346-7.507-.24-5.76 1.144-7.305 4.691-17.777 13.445-5.474 4.684.023.007.187.644 1.029 2.733.058.648 1.075 2.657.473.681 1.169.605 1.872-.854.787.34.578 3.703-2.89 3.044-7.157 4.719-5.713 6.654-3.631 1.855-3.804-1.689-5.097.2-5.077 1.2-2.694 1.598 1.491-3.478.856-1.616.347-1.376-1.979-2.47L0 264.277l.417-1.932 2.729-1.726 6.706-3.269.185-.057.185-.017.208.017.879.281.671.083.647-.074 2.463-.763.485-1.07-.105-1.488.058-1.733.472-2.693v-6.649l2.75-3.813.349-.78-.151-1.805-1.376-2.474-1.655-1.789-5.546-3.413-.54-.333 1.296-1.24.21-1.078-.234-1.108v-1.245l-.082-.502-.268-.678-.245-.768v-.837l.443-.998 1.283-1.387 3.928-6.75 3.987-5.045-2.73-3.057-.349-2.16 1.516-1.991 15.164-13.91 8.079-4.442 1.118-.948 2.973-3.36 3.742-1.987 1.188-.888 1.272-1.599.432-1.363-.049-2.777-.839-.926-.594-.809-.314-.926.162-.799 1.772-5.358.782-1.418.217-.543.411-1.032.187-2.281-.362-1.824-1.501-2.872-.468-1.491 1.678-5.788 5.466-3.174 12.136-3.823 7.524-5.743 2.577-3.73-1.353-3.067 1.516-2.629 1.06-1.047 2.833-1.019.419-1.05.42-.292 1.62-.838-.14-2.831 3.38-1.181 7.141-6.62.25-.23 2.145-3.547 3.274-3.382 7.658-5.628-.453-4.118.722-3.408 2.121-2.19 1.026-.127.607-.24 1.642-2.23 1.178-.691 1.154-.318 1.061-.679.874-1.826-1.177-1.689-1.691-1.538-1.677-1.37-2.075 1.001-13.416 1.324.558-2.128 1.4-2.6 1.667-2.186 2.902-1.711.175-3.141 2.96-.663 1.83-1.06 1.679-1.432.85-1.404-.547-1.985-1.167-2.304-.279-1.857 2.099-.642 1.002-.789 1.015-.263 1.024.263 1.026.789 2.926.427 5.618-.984 2.658.557 1.469.85.208.032 1.295.208 3.067-.31-2.053 4.729.64 2.721 2.45 1.472 3.309 1.041.467.376.315.598.456.602.873.37.756-.155 4.267-1.859 2.984-.627 3.14.133 4.694.201 1.09-.44 2.045-.825 1.603-2.1.624-.818.361-1.56-.186-.938-.549-.78-.373-.405-.571-1.03-.012-1.025 1.318-.387 1.748.61.509.326.961.615 1.456.215 1.725-1.56.198-.28.151-.474.013-.436-.019-.062-.098-.356-.805-1.132-.243-.673.15-.526.653-.353 1.165.249.91-.3.49-.954-.036-1.668-.384.008-1.877-1.44-.268-.112 4.302-3.531.617-.507 2.705-1.51 3.966-1.502.061-.022 5.752-1.731 2.553-.268-1.48 4.183-1.202 1.16-2.655-.023-.293-.002 4.19 2.221 1.637.867 2.484.332 4.949-1.03 4.444-.923 2.124-1.208 1.794-2.154 2.051-3.216 1.586.813 7.273.44.688.717.362 1.565.221 1.567.303.707h14.676l5.07-1.138 1.095-.747.502-.725.454-.845.957-1.102.92-.716 2.448-1.326 2.063-.616.769-.817.56-.816.582-.381 6.084-1.028 2.04-.008 2.928.898 1.305.138.606.726.606 1.61.792 1.61 1.107.726 4.278 1.14 7.216.043.342-.058 3.131-.528.14-.795 1.317-2.859 3.452-2.288 3.379-.346 1.736 1.632 1.34 2.263.236.29 1.013 1.247 1.514-.51.245-.43.49-.86.128-1.253-.057-1.187.139-1.14-.047-.574-.267-.652-.186-.762.255-.923.408-.355.594-.225.489-.017.107.268.068 1.029.735.37.641-3.962-1.025-.1-.523-.215-1.284-.528-1.574-.267-5.477.933-1.692.851-1.562 1.119-1.665.865-2.007.086-2.33-1.331-2.892-2.208-.559-.088-1.77-.652.72-1.811-.279-1.426-.477-1.226.128-1.237 1.107-1.268 2.856-1.57 1.201-1.125.85-3.35.525-1.22 1.527-2.253.886-.528 1.26.034 6.072-1.213 1.702-.866-1.05-2.643L292.235 0z" fill="#D8D8D8" fill-rule="evenodd" opacity=".12"/>
</svg>
