<?xml version="1.0" encoding="UTF-8"?><svg id="Layer_1" data-name="Layer 1" xmlns="http://www.w3.org/2000/svg" viewBox="0 0 328.49 90.32"><defs><style>.cls-1,.cls-2,.cls-3,.cls-4,.cls-5,.cls-7,.cls-8,.cls-9{fill:#fff;}</style></defs><title>one-line_logo_2021</title><path class="cls-1" d="M83.4,59.78h-19V80.06A38.32,38.32,0,0,0,83.4,59.78Z"/><path class="cls-2" d="M46.26,84.13V68.85h0a22.16,22.16,0,0,1-18.15-9.09V80.27a42.14,42.14,0,0,0,17.94,3.87Z"/><path class="cls-3" d="M28.11,80.27V59.78H8.8A37.83,37.83,0,0,0,28.11,80.27Z"/><path class="cls-4" d="M23.44,45.17H6.1v.21a39.26,39.26,0,0,0,2.7,14.4H28.13A24.57,24.57,0,0,1,23.44,45.17Z"/><path class="cls-5" d="M23.44,45.17h0V45a24,24,0,0,1,6.81-17.11H10.12a38.9,38.9,0,0,0-4,17.32H23.44Z"/><g class="cls-6"><path class="cls-7" d="M30.36,27.73a22,22,0,0,1,15.69-6.26h.22V6.18h0a42.54,42.54,0,0,0-15.9,3Z"/></g><path class="cls-8" d="M10.12,27.84H30.25l.11-.11V9.19A38.48,38.48,0,0,0,10.12,27.84Z"/><path class="cls-9" d="M64.36,59.78a21.87,21.87,0,0,1-18.1,9.07V84.13a41.89,41.89,0,0,0,18.1-4.07Z"/><path class="cls-7" d="M68.87,45.38a24.46,24.46,0,0,1-4.51,14.4h19a39.07,39.07,0,0,0,2.81-14.62H68.87Z"/><rect class="cls-7" x="51.54" y="27.83" width="17.33" height="17.33"/><path class="cls-7" d="M120.64,60.66a13.9,13.9,0,0,1-6.08-1.31,14.87,14.87,0,0,1-4.69-3.49,15.54,15.54,0,0,1-3-5,15.77,15.77,0,0,1-1.08-5.72,15.32,15.32,0,0,1,1.14-5.85A16.35,16.35,0,0,1,110,34.38,14.93,14.93,0,0,1,114.79,31a14.07,14.07,0,0,1,6-1.27,13.43,13.43,0,0,1,6,1.35,15.11,15.11,0,0,1,4.67,3.55,16.31,16.31,0,0,1,3,5,15.79,15.79,0,0,1,1.07,5.67,15.35,15.35,0,0,1-1.12,5.83,15.67,15.67,0,0,1-3.09,4.9,15,15,0,0,1-4.73,3.4A14.22,14.22,0,0,1,120.64,60.66Zm-8.86-15.48a12.26,12.26,0,0,0,.6,3.82,10.27,10.27,0,0,0,1.75,3.27,8.59,8.59,0,0,0,2.79,2.28,8.07,8.07,0,0,0,3.76.86,7.94,7.94,0,0,0,3.81-.88,8.77,8.77,0,0,0,2.79-2.34A10.34,10.34,0,0,0,129,48.9a12.14,12.14,0,0,0,.58-3.72,11.78,11.78,0,0,0-.62-3.83,10.72,10.72,0,0,0-1.76-3.27,8.32,8.32,0,0,0-2.8-2.25,8.69,8.69,0,0,0-7.54,0,8.56,8.56,0,0,0-2.8,2.32,10.6,10.6,0,0,0-1.7,3.27A12.45,12.45,0,0,0,111.78,45.18Z"/><path class="cls-7" d="M151.64,40.88V60.44h-5.93V29.91h4.6l15.91,20V30h5.93V60.44h-4.81Z"/><path class="cls-7" d="M205.31,55.24v5.2h-21.2V29.91h20.81v5.21H190v7.35H202.9v4.81H190v8Z"/><path class="cls-7" d="M216.19,60.44V29.91h3V57.78h17.63v2.66Z"/><path class="cls-7" d="M246.84,60.44V29.91h3V60.44Z"/><path class="cls-7" d="M266.11,35.5V60.44h-3V29.91h2.32l20.21,25.42V30h3V60.44H286Z"/><path class="cls-7" d="M322.39,57.78v2.66H301.88V29.91H322v2.67H304.89v11h14.92v2.53H304.89V57.78Z"/></svg>